<?xml version="1.0" encoding="UTF-8"?>
<svg id="_레이어_2" data-name="레이어 2" xmlns="http://www.w3.org/2000/svg" xmlns:xlink="http://www.w3.org/1999/xlink" viewBox="0 0 150.38 88">
  <defs>
    <style>
      .cls-1 {
        fill: url(#linear-gradient);
      }

      .cls-2 {
        fill: #fff;
      }

      .cls-3 {
        fill: #ff0092;
      }

      .cls-4 {
        fill: url(#linear-gradient-8);
      }

      .cls-5 {
        fill: url(#linear-gradient-3);
      }

      .cls-6 {
        fill: url(#linear-gradient-4);
      }

      .cls-7 {
        fill: url(#linear-gradient-2);
      }

      .cls-8 {
        fill: url(#linear-gradient-6);
      }

      .cls-9 {
        fill: url(#linear-gradient-7);
      }

      .cls-10 {
        fill: url(#linear-gradient-5);
      }
    </style>
    <linearGradient id="linear-gradient" x1="60.75" y1="14.64" x2="60.75" y2="0" gradientUnits="userSpaceOnUse">
      <stop offset="0" stop-color="#f90"/>
      <stop offset="1" stop-color="#ffe385"/>
    </linearGradient>
    <linearGradient id="linear-gradient-2" x1="60.75" y1="35.5" x2="60.75" y2="88" xlink:href="#linear-gradient"/>
    <linearGradient id="linear-gradient-3" x1="50.37" y1="25.02" x2="35.74" y2="25.02" xlink:href="#linear-gradient"/>
    <linearGradient id="linear-gradient-4" x1="71.15" y1="25.02" x2="85.78" y2="25.02" xlink:href="#linear-gradient"/>
    <linearGradient id="linear-gradient-5" x1="48.29" y1="18.33" x2="48.29" y2="6.7" xlink:href="#linear-gradient"/>
    <linearGradient id="linear-gradient-6" x1="73.32" y1="31.73" x2="73.32" y2="43.37" xlink:href="#linear-gradient"/>
    <linearGradient id="linear-gradient-7" x1="54.06" y1="37.5" x2="42.43" y2="37.5" xlink:href="#linear-gradient"/>
    <linearGradient id="linear-gradient-8" x1="73.29" y1="18.23" x2="73.29" y2="6.68" xlink:href="#linear-gradient"/>
  </defs>
  <g id="Layer_1" data-name="Layer 1">
    <g>
      <path class="cls-2" d="M0,47.65H3.42v21.16l12.48-10.82h5.05l-14.76,12.8,15.64,14.11h-4.94l-13.47-12.15v12.15H0V47.65Z"/>
      <path class="cls-2" d="M52.19,57.99v26.91h-3.42v-4.62c-1.45,1.76-3.08,3.09-4.89,3.98-1.81,.89-3.79,1.34-5.93,1.34-3.81,0-7.07-1.38-9.76-4.14-2.7-2.76-4.05-6.12-4.05-10.08s1.36-7.19,4.08-9.95c2.72-2.75,6-4.13,9.83-4.13,2.21,0,4.21,.47,6,1.41,1.79,.94,3.36,2.35,4.71,4.22v-4.94h3.42Zm-13.88,2.63c-1.92,0-3.7,.48-5.33,1.42-1.63,.95-2.92,2.29-3.89,4-.96,1.72-1.44,3.54-1.44,5.45s.49,3.72,1.46,5.45c.97,1.73,2.27,3.09,3.91,4.05,1.64,.97,3.39,1.45,5.27,1.45s3.68-.48,5.38-1.44c1.7-.96,3-2.25,3.91-3.89,.91-1.64,1.37-3.48,1.37-5.52,0-3.12-1.02-5.73-3.07-7.83-2.05-2.1-4.57-3.15-7.56-3.15Z"/>
    </g>
    <g>
      <path class="cls-1" d="M59.36,.49c.37-.32,.82-.49,1.35-.49s.98,.14,1.35,.42c.41,.33,.62,.77,.62,1.34V12.64c0,.6-.21,1.09-.62,1.45-.37,.36-.82,.55-1.35,.55s-.99-.16-1.35-.49c-.37-.4-.55-.91-.55-1.52V1.76c0-.56,.18-.99,.55-1.27Z"/>
      <path class="cls-7" d="M59.32,36.13c.38-.42,.85-.63,1.4-.63s1.02,.19,1.4,.56c.42,.42,.64,1,.64,1.74v47.57c0,.79-.21,1.43-.64,1.91-.38,.48-.85,.71-1.4,.71s-1.02-.21-1.4-.63c-.38-.53-.57-1.19-.57-1.99V37.8c0-.74,.19-1.3,.57-1.67Z"/>
      <path class="cls-3" d="M68.21,25.02c0,4.12-3.34,7.47-7.46,7.47s-7.46-3.34-7.46-7.47,3.34-7.46,7.46-7.46,7.46,3.34,7.46,7.46Z"/>
      <path class="cls-5" d="M49.89,23.64c.32,.36,.49,.82,.49,1.35s-.14,.98-.42,1.36c-.33,.41-.77,.61-1.33,.61h-10.88c-.61,0-1.09-.21-1.45-.61-.37-.37-.55-.82-.55-1.36s.16-.99,.49-1.35c.4-.37,.91-.56,1.52-.56h10.88c.56,0,.99,.18,1.27,.56Z"/>
      <path class="cls-6" d="M85.3,23.64c.32,.36,.49,.82,.49,1.35s-.14,.98-.42,1.36c-.33,.41-.77,.61-1.34,.61h-10.88c-.61,0-1.09-.21-1.46-.61-.36-.37-.54-.82-.54-1.36s.16-.99,.48-1.35c.4-.37,.91-.56,1.52-.56h10.88c.56,0,.99,.18,1.27,.56Z"/>
      <path class="cls-10" d="M54.05,16.36c-.03,.49-.24,.92-.61,1.3-.38,.38-.79,.6-1.26,.66-.52,.06-.98-.11-1.38-.51l-7.69-7.69c-.43-.43-.63-.92-.6-1.46,0-.52,.2-.97,.57-1.34,.38-.38,.81-.58,1.3-.61,.55,.02,1.03,.25,1.46,.68l7.69,7.69c.4,.4,.57,.83,.51,1.29Z"/>
      <path class="cls-8" d="M79.09,41.4c-.03,.49-.23,.92-.61,1.3-.38,.37-.79,.59-1.26,.66-.52,.06-.98-.11-1.38-.51l-7.69-7.69c-.43-.43-.63-.92-.6-1.46,0-.52,.2-.97,.57-1.34s.81-.59,1.3-.61c.55,.02,1.04,.25,1.46,.68l7.69,7.69c.4,.4,.57,.83,.51,1.29Z"/>
      <path class="cls-9" d="M52.09,31.73c.49,.03,.92,.24,1.3,.61,.38,.38,.6,.79,.66,1.26,.06,.52-.11,.98-.51,1.38l-7.69,7.69c-.43,.43-.92,.63-1.46,.59-.52,0-.97-.2-1.35-.57-.38-.38-.58-.81-.61-1.3,.02-.55,.25-1.04,.68-1.46l7.69-7.69c.4-.4,.83-.57,1.29-.51Z"/>
      <path class="cls-4" d="M77.13,6.69c.49,.03,.92,.23,1.3,.61,.38,.37,.6,.79,.66,1.26,.06,.52-.11,.98-.51,1.38l-7.69,7.69c-.43,.43-.92,.63-1.46,.6-.52,0-.97-.2-1.34-.57-.38-.38-.58-.81-.61-1.3,.02-.55,.25-1.03,.68-1.46l7.69-7.69c.4-.4,.83-.57,1.29-.51Z"/>
    </g>
    <g>
      <path class="cls-2" d="M69.33,57.64h3.42v4.81c1.39-1.84,2.93-3.22,4.61-4.14,1.69-.92,3.52-1.38,5.51-1.38s3.81,.51,5.37,1.53c1.56,1.02,2.72,2.4,3.46,4.13,.74,1.73,1.12,4.42,1.12,8.09v13.85h-3.42v-12.86c0-3.1-.13-5.18-.39-6.22-.4-1.78-1.18-3.12-2.32-4.03-1.15-.9-2.64-1.35-4.48-1.35-2.11,0-4,.69-5.67,2.08-1.67,1.39-2.77,3.1-3.3,5.15-.33,1.34-.5,3.79-.5,7.33v9.88h-3.42v-26.91Z"/>
      <path class="cls-2" d="M99.72,57.64h3.42v12.58c0,3.07,.17,5.19,.5,6.34,.5,1.65,1.47,2.96,2.88,3.91,1.42,.96,3.11,1.44,5.08,1.44s3.63-.47,5-1.4c1.37-.93,2.31-2.16,2.83-3.68,.35-1.04,.53-3.25,.53-6.61v-12.58h3.42v13.21c0,3.71-.44,6.51-1.31,8.39-.87,1.88-2.18,3.35-3.93,4.41-1.75,1.06-3.94,1.6-6.58,1.6s-4.83-.53-6.6-1.6c-1.76-1.06-3.08-2.55-3.95-4.45-.87-1.9-1.3-4.77-1.3-8.6v-12.96Z"/>
      <path class="cls-2" d="M129.66,57.64h3.42v3.92c1.07-1.54,2.19-2.7,3.37-3.47,1.18-.77,2.42-1.15,3.7-1.15,.97,0,2,.3,3.1,.91l-1.8,2.89c-.74-.31-1.35-.47-1.85-.47-1.17,0-2.3,.47-3.38,1.42-1.09,.95-1.91,2.42-2.48,4.42-.43,1.53-.65,4.64-.65,9.31v9.12h-3.42v-26.91Z"/>
      <path class="cls-2" d="M147.44,46.59c.81,0,1.51,.28,2.08,.84,.57,.56,.86,1.23,.86,2.02s-.29,1.44-.86,2c-.58,.56-1.27,.84-2.08,.84s-1.48-.28-2.06-.84c-.58-.56-.86-1.22-.86-2s.29-1.46,.86-2.02c.58-.56,1.26-.84,2.06-.84Zm-1.7,11.04h3.42v26.91h-3.42v-26.91Z"/>
    </g>
  </g>
</svg>